<?xml version="1.0" standalone="no"?>
<!DOCTYPE svg PUBLIC "-//W3C//DTD SVG 20010904//EN"
 "http://www.w3.org/TR/2001/REC-SVG-20010904/DTD/svg10.dtd">
<svg version="1.0" xmlns="http://www.w3.org/2000/svg"
 width="500.000000pt" height="500.000000pt" viewBox="0 0 500.000000 500.000000"
 preserveAspectRatio="xMidYMid meet">

<g transform="translate(0.000000,500.000000) scale(0.100000,-0.100000)"
fill="#000000" stroke="none">
<path d="M2270 4561 c-20 -5 -25 -13 -24 -39 3 -224 1 -209 40 -252 l36 -40
-68 0 c-99 0 -114 -6 -114 -44 0 -41 41 -127 75 -158 l27 -25 -88 -8 c-132
-10 -156 -34 -115 -113 38 -74 111 -116 223 -128 66 -7 67 -7 62 -34 -4 -18 2
-43 19 -74 29 -55 25 -83 -19 -141 -39 -52 -44 -118 -11 -166 22 -33 24 -41
15 -75 -10 -34 -7 -49 22 -119 39 -97 37 -138 -10 -212 -28 -45 -32 -59 -28
-98 3 -25 14 -55 24 -66 18 -20 18 -21 -5 -40 -30 -25 -34 -24 -54 10 -10 17
-26 33 -37 36 -12 4 -20 15 -20 28 -1 30 -19 51 -61 73 -67 36 -134 85 -146
108 -6 12 -35 34 -62 47 -28 13 -51 28 -51 34 0 5 -25 27 -56 49 -47 32 -61
37 -91 33 -24 -4 -47 0 -72 12 -56 29 -98 34 -148 21 -56 -16 -136 -88 -169
-151 -75 -150 -83 -438 -19 -746 38 -186 63 -251 134 -356 63 -94 121 -146
212 -191 82 -40 151 -56 243 -56 l62 0 34 -52 c68 -103 178 -138 442 -138 317
0 430 46 489 200 38 99 19 182 -73 322 -79 119 -113 189 -128 262 -14 71 -7
129 20 156 26 26 26 76 0 92 -13 9 -20 24 -20 44 0 27 5 34 33 45 17 7 48 13
67 14 49 2 105 31 118 60 7 14 19 25 28 25 9 0 28 9 43 20 16 10 52 27 82 37
39 13 59 27 74 50 11 17 29 36 40 41 11 6 61 44 110 87 50 42 109 88 133 103
73 45 94 66 87 84 -12 29 -34 28 -103 -6 -37 -18 -80 -38 -97 -44 -60 -21
-232 -70 -287 -83 -53 -11 -98 -38 -98 -58 0 -5 -12 -12 -27 -16 -16 -3 -42
-17 -60 -31 -17 -13 -41 -24 -52 -24 -29 0 -79 -46 -86 -80 -5 -22 -12 -30
-29 -30 -12 0 -33 -11 -46 -25 -28 -30 -29 -30 -58 -5 l-23 19 21 33 c28 47
25 79 -15 155 -44 83 -45 122 -4 216 29 64 31 76 21 112 -9 34 -8 43 11 70 34
46 30 108 -10 171 -38 59 -42 98 -13 152 13 23 18 47 15 63 -6 26 -5 26 62 33
113 12 186 53 225 129 39 77 13 102 -120 113 l-81 7 26 20 c30 24 73 115 73
155 0 44 -16 52 -102 52 l-79 0 33 41 c32 40 33 45 40 158 3 69 2 120 -3 126
-12 12 -401 17 -439 6z m333 -67 c56 -10 39 -29 -29 -32 -32 -1 -65 -5 -72 -7
-27 -10 1 -25 44 -25 24 0 44 -5 44 -10 0 -6 11 -8 25 -4 20 5 24 3 20 -9 -6
-14 -66 -27 -126 -27 -51 0 -31 -19 23 -22 40 -2 54 -7 56 -20 3 -14 -6 -17
-44 -20 -65 -4 -72 -28 -9 -28 60 0 57 -24 -3 -28 -41 -3 -58 -24 -29 -35 6
-3 -8 -5 -33 -5 -25 0 -35 3 -22 5 35 7 21 27 -23 33 -48 6 -60 30 -16 30 17
0 31 4 31 9 0 15 -13 20 -59 22 -23 2 -47 9 -54 17 -10 12 -8 14 10 8 12 -4
24 -2 28 4 3 5 19 10 36 10 47 0 33 16 -23 26 -57 10 -85 40 -29 32 18 -3 34
-1 37 4 3 4 18 8 35 8 19 0 29 5 29 15 0 10 -16 15 -62 17 -64 3 -91 23 -41
31 46 7 215 7 256 1z m27 -153 c0 -12 -20 -25 -27 -18 -7 7 6 27 18 27 5 0 9
-4 9 -9z m43 -178 c42 -4 66 -10 64 -17 -2 -6 -16 -11 -30 -11 -14 -1 -29 -4
-33 -8 -4 -4 -43 -7 -86 -7 -63 0 -78 -3 -78 -15 0 -12 18 -15 100 -15 139 0
133 -22 -10 -37 -41 -4 -60 -10 -60 -19 0 -8 8 -14 18 -14 14 0 15 -2 2 -10
-20 -13 -147 -13 -155 0 -3 5 6 12 20 16 44 11 27 21 -47 27 -40 4 -83 10 -95
13 -42 12 -12 24 58 24 88 0 92 22 6 30 -31 3 -62 11 -68 17 -9 9 -16 9 -25 2
-7 -6 -18 -8 -24 -4 -21 13 -9 24 33 28 76 7 340 7 410 0z m167 -238 l25 -9
-25 -7 c-37 -10 -713 -10 -729 0 -10 7 -2 12 30 19 53 13 662 9 699 -3z m-137
-62 c71 -4 95 -9 87 -17 -14 -14 -586 -15 -615 -1 -16 7 -5 11 50 15 102 9
365 11 478 3z m-148 -133 c4 -6 -23 -10 -75 -10 -52 0 -79 4 -75 10 3 6 37 10
75 10 38 0 72 -4 75 -10z m-1 -54 c-3 -8 -17 -16 -32 -18 -31 -4 -43 -28 -13
-28 16 0 21 -6 21 -25 0 -14 -3 -24 -7 -24 -28 5 -73 -3 -73 -12 0 -6 17 -9
43 -7 36 2 42 0 42 -17 0 -17 -9 -21 -55 -25 -67 -6 -51 -23 18 -19 52 3 72
-4 72 -27 0 -10 -12 -14 -42 -14 -54 0 -38 -18 20 -22 56 -4 54 -22 -3 -28
-60 -7 -58 -24 2 -30 44 -5 46 -6 26 -17 -28 -17 -158 -17 -186 -1 -21 12 -20
13 16 18 21 3 38 10 38 15 0 6 -17 12 -38 15 -25 3 -38 10 -38 20 0 11 9 14
38 12 22 -2 37 1 37 7 0 6 -11 11 -25 11 -29 0 -30 6 -9 50 9 18 19 52 22 76
4 39 8 44 29 44 36 0 23 24 -14 28 -17 2 -34 10 -37 18 -4 11 9 14 74 14 65 0
78 -3 74 -14z m1 -401 c0 -11 -119 -20 -142 -11 -8 3 -11 11 -8 16 8 14 150 9
150 -5z m15 -55 c0 -5 -12 -12 -27 -16 -46 -10 -53 -13 -53 -24 0 -5 12 -10
26 -10 30 0 23 -17 -14 -32 -27 -11 -27 -12 -4 -16 15 -2 22 -9 20 -20 -4 -20
-46 -27 -68 -12 -13 9 -13 12 3 24 22 17 22 22 -3 29 -26 7 -26 27 -1 27 39 0
30 18 -14 29 -72 18 -53 31 45 31 52 0 90 -4 90 -10z m-940 -123 c17 -8 25
-21 25 -38 1 -35 28 -74 73 -106 21 -15 46 -40 57 -57 11 -16 38 -39 61 -50
22 -12 46 -33 53 -47 6 -15 32 -39 56 -55 25 -15 47 -36 51 -46 8 -26 62 -61
98 -62 17 -1 46 -11 63 -21 39 -24 44 -62 13 -90 -26 -23 -26 -65 1 -94 16
-17 21 -35 21 -85 0 -35 -3 -78 -7 -97 -11 -50 -60 -143 -123 -234 -64 -91
-92 -158 -92 -216 l0 -42 -94 5 c-76 4 -106 11 -150 32 -72 35 -150 107 -197
180 -155 238 -219 811 -114 1015 23 46 77 104 105 114 27 10 75 7 100 -6z
m174 -38 c35 -20 35 -21 18 -45 -9 -13 -22 -24 -28 -24 -20 0 -65 56 -58 73 8
22 26 21 68 -4z m711 -25 c0 -13 -9 -21 -30 -25 -24 -5 -27 -7 -12 -13 9 -5
24 -6 32 -2 10 4 15 -1 15 -14 0 -17 -7 -20 -44 -20 l-43 0 10 50 c9 49 11 51
41 47 23 -2 31 -8 31 -23z m785 -53 c0 -5 -16 -21 -36 -36 -29 -22 -38 -25
-45 -14 -16 25 -10 36 29 51 37 15 52 14 52 -1z m-1372 -7 c28 -19 28 -36 -1
-69 l-22 -27 -20 23 c-18 20 -18 22 -2 16 11 -4 16 -3 12 4 -4 5 -15 7 -26 4
-24 -8 -27 26 -3 49 19 20 34 20 62 0z m1224 -41 c18 -16 26 -83 11 -83 -5 0
-17 19 -27 43 -11 23 -22 45 -24 50 -7 14 21 7 40 -10z m-603 -20 c10 -21 8
-23 -19 -23 -20 0 -30 -5 -30 -15 0 -11 11 -15 41 -15 28 0 39 -4 37 -12 -3
-7 -13 -14 -24 -16 -48 -7 -64 -13 -59 -22 3 -6 17 -10 31 -10 27 0 32 -15 8
-24 -35 -13 -124 -3 -124 15 0 5 9 9 20 9 34 0 23 28 -12 32 -46 4 -49 28 -3
28 40 0 46 22 7 28 -25 4 -26 6 -12 31 7 14 21 18 69 17 52 -1 61 -4 70 -23z
m547 -38 c17 -41 17 -45 4 -45 -5 0 -10 6 -10 14 0 7 -9 25 -21 40 -17 22 -18
26 -4 26 9 0 22 -15 31 -35z m-1055 4 c35 -25 36 -30 5 -65 -23 -27 -24 -28
-50 -11 -14 10 -26 22 -26 28 0 7 6 7 18 -2 16 -13 16 -13 0 7 -21 24 -22 36
-6 52 17 17 25 15 59 -9z m991 -33 c6 -14 7 -33 3 -43 -7 -17 -8 -17 -15 2 -8
19 -12 16 -14 -14 -1 -19 -26 -27 -26 -8 0 7 -9 22 -21 33 l-21 19 22 17 c31
25 58 22 72 -6z m-882 -41 c0 -1 -11 -15 -25 -31 -14 -16 -25 -35 -25 -41 0
-18 -19 -16 -26 1 -7 17 20 72 38 79 12 4 38 -1 38 -8z m762 -12 c17 -16 25
-63 12 -76 -6 -6 -64 75 -64 88 0 12 35 4 52 -12z m-52 -86 c0 -16 -18 3 -23
25 -6 22 -5 22 8 4 8 -11 15 -24 15 -29z m-322 9 c20 -12 13 -26 -13 -26 -16
0 -25 -6 -25 -15 0 -12 10 -14 55 -9 59 7 74 -2 110 -68 13 -23 13 -27 -3 -33
-9 -4 -78 -10 -153 -13 -110 -4 -143 -1 -167 11 -22 11 -32 12 -35 3 -3 -6 -8
-4 -12 7 -9 22 36 84 74 100 14 6 36 21 49 33 16 16 33 21 65 20 23 -1 48 -6
55 -10z m-299 -25 c23 -32 26 -41 12 -41 -19 0 -64 47 -57 58 11 19 23 14 45
-17z m561 5 c0 -14 -79 -58 -91 -50 -16 9 -10 20 27 47 36 25 64 26 64 3z
m-88 -208 c-13 -11 -149 -28 -234 -28 -89 0 -218 16 -230 28 -4 4 101 7 232 7
131 0 236 -3 232 -7z m-47 -111 c-7 -4 -42 -10 -77 -14 -35 -3 -66 -11 -70
-17 -5 -8 -8 -7 -8 2 0 7 -13 12 -30 12 -21 0 -30 -5 -30 -16 0 -15 13 -16
115 -12 90 4 115 3 115 -8 0 -7 -15 -15 -32 -19 -55 -11 -68 -16 -68 -26 0 -6
18 -9 43 -7 53 4 64 -13 17 -28 -52 -17 -53 -38 -1 -31 35 4 41 2 41 -13 0
-12 -10 -20 -35 -24 -22 -5 -35 -13 -35 -23 0 -11 7 -14 23 -10 84 19 87 19
87 -2 0 -15 -10 -23 -37 -30 -21 -6 -44 -11 -50 -11 -7 0 -13 -7 -13 -15 0
-19 32 -19 85 0 21 8 40 13 40 12 0 -1 6 -10 14 -19 11 -15 6 -19 -46 -35 -33
-10 -59 -22 -59 -28 1 -14 71 -9 105 8 l29 14 50 -76 c55 -85 72 -126 72 -181
0 -44 -40 -124 -64 -128 -15 -3 -16 -1 -6 17 18 34 3 43 -39 21 -105 -53 -474
-62 -602 -15 -24 9 -55 19 -68 22 -22 5 -23 3 -17 -21 10 -40 -10 -31 -39 17
-35 61 -34 122 6 201 16 33 45 78 62 99 l33 38 43 -16 c52 -18 94 -20 89 -3
-2 6 -26 19 -54 28 -45 15 -67 41 -46 54 4 2 26 -1 48 -9 21 -8 49 -14 62 -15
39 0 24 25 -23 38 -42 11 -66 34 -52 49 4 3 26 1 49 -5 29 -7 46 -8 53 -1 12
12 -11 29 -42 29 -15 0 -23 6 -23 18 0 14 7 17 40 14 50 -5 53 12 5 28 -53 18
-46 41 10 33 50 -6 65 12 18 23 -98 20 -97 46 2 37 63 -5 75 -4 75 9 0 11 -16
17 -61 22 -125 13 -81 21 111 21 109 0 193 -3 185 -8z m-386 -767 c94 -14 311
-11 411 4 70 11 87 11 99 1 58 -55 -488 -76 -604 -23 -20 9 -22 14 -13 25 6 8
18 11 26 8 8 -3 45 -10 81 -15z"/>
<path d="M1765 3050 c3 -5 11 -10 16 -10 6 0 7 5 4 10 -3 6 -11 10 -16 10 -6
0 -7 -4 -4 -10z"/>
<path d="M2000 2870 c0 -5 5 -10 11 -10 5 0 7 5 4 10 -3 6 -8 10 -11 10 -2 0
-4 -4 -4 -10z"/>
<path d="M2330 2615 c-8 -9 -8 -15 -2 -15 12 0 26 19 19 26 -2 2 -10 -2 -17
-11z"/>
<path d="M2400 2616 c0 -13 12 -16 69 -16 39 0 73 5 76 10 4 6 -14 10 -47 10
-29 0 -63 3 -75 6 -17 5 -23 2 -23 -10z"/>
<path d="M2610 2622 c0 -5 7 -15 15 -22 8 -7 15 -8 15 -2 0 5 -7 15 -15 22 -8
7 -15 8 -15 2z"/>
<path d="M2443 2268 c2 -7 16 -13 32 -13 16 0 30 6 33 13 2 8 -8 12 -33 12
-25 0 -35 -4 -32 -12z"/>
<path d="M2440 2180 c0 -5 16 -10 35 -10 19 0 35 5 35 10 0 6 -16 10 -35 10
-19 0 -35 -4 -35 -10z"/>
<path d="M2440 2095 c0 -13 8 -16 38 -13 20 2 37 8 37 13 0 6 -17 11 -37 13
-30 3 -38 0 -38 -13z"/>
<path d="M2150 1975 c0 -18 31 -32 81 -37 54 -5 43 22 -16 38 -64 17 -65 17
-65 -1z"/>
<path d="M2765 1980 c-11 -5 -32 -9 -47 -9 -30 -1 -47 -19 -28 -31 14 -8 99 8
117 22 27 22 -3 35 -42 18z"/>
<path d="M2130 1929 c0 -11 61 -39 87 -39 24 0 6 14 -44 33 -26 10 -43 13 -43
6z"/>
<path d="M2775 1915 c-33 -16 -43 -24 -29 -24 34 -1 84 20 84 35 0 8 -1 14 -2
13 -2 0 -25 -11 -53 -24z"/>
<path d="M2101 1866 c-8 -10 -8 -16 1 -24 22 -17 117 -42 123 -31 8 12 -3 29
-18 29 -7 0 -30 9 -52 20 -47 24 -40 23 -54 6z"/>
<path d="M2800 1860 c-25 -11 -57 -22 -72 -25 -41 -8 -34 -25 11 -25 68 0 134
30 124 56 -6 17 -6 17 -63 -6z"/>
<path d="M2376 1812 c-3 -6 -1 -14 5 -17 15 -10 25 3 12 16 -7 7 -13 7 -17 1z"/>
<path d="M2440 1800 c0 -5 18 -10 40 -10 22 0 40 5 40 10 0 6 -18 10 -40 10
-22 0 -40 -4 -40 -10z"/>
<path d="M2076 1791 c-8 -12 26 -35 80 -54 167 -59 605 -41 712 29 36 24 13
38 -31 19 -151 -63 -586 -58 -738 9 -10 4 -20 3 -23 -3z"/>
<path d="M1797 3970 c-326 -165 -603 -434 -774 -750 -64 -119 -133 -323 -164
-485 -10 -47 -14 -147 -14 -310 1 -268 12 -348 79 -542 59 -173 189 -398 230
-398 34 0 43 31 19 64 -41 55 -152 276 -183 365 -163 461 -93 1004 181 1413
165 245 374 427 678 589 59 32 70 47 51 69 -18 21 -37 18 -103 -15z"/>
<path d="M3066 3985 c-29 -30 -21 -39 81 -92 325 -169 583 -433 743 -758 76
-154 98 -217 132 -368 20 -90 23 -129 23 -332 0 -235 -6 -297 -47 -440 -37
-133 -114 -300 -193 -419 -19 -29 -35 -56 -35 -59 0 -11 32 -37 45 -37 32 0
182 281 234 438 54 167 66 253 66 507 0 235 -5 293 -40 430 -41 163 -139 374
-250 540 -33 49 -107 138 -165 198 -157 164 -284 262 -452 350 -108 57 -122
61 -142 42z"/>
<path d="M1020 2865 c-14 -17 -7 -31 20 -38 25 -6 45 24 28 41 -16 16 -33 15
-48 -3z"/>
<path d="M3887 2873 c-12 -11 -8 -41 6 -46 17 -6 47 11 47 27 0 20 -39 34 -53
19z"/>
<path d="M1002 2788 c-18 -18 -14 -36 9 -43 27 -9 43 7 34 34 -7 23 -25 27
-43 9z"/>
<path d="M3920 2785 c-15 -18 -6 -45 13 -45 8 0 20 7 27 15 10 12 10 18 0 30
-16 19 -24 19 -40 0z"/>
<path d="M974 2686 c-10 -26 4 -48 28 -44 17 2 23 10 23 28 0 18 -6 26 -23 28
-13 2 -25 -3 -28 -12z"/>
<path d="M3930 2685 c-10 -12 -10 -18 0 -30 16 -19 25 -19 45 1 12 12 13 19 4
30 -15 18 -33 18 -49 -1z"/>
<path d="M964 2545 c-9 -23 3 -45 24 -45 25 0 44 23 36 44 -8 20 -53 21 -60 1z"/>
<path d="M3944 2545 c-8 -21 2 -45 19 -45 21 0 38 25 31 44 -8 20 -43 21 -50
1z"/>
<path d="M963 2434 c-12 -33 6 -231 31 -329 46 -179 109 -325 199 -458 33 -50
42 -58 65 -55 42 5 38 36 -13 113 -59 87 -88 145 -126 248 -45 122 -79 270
-86 377 -3 52 -10 101 -16 108 -14 17 -46 15 -54 -4z"/>
<path d="M3936 2428 c-3 -13 -7 -61 -11 -108 -7 -99 -53 -297 -91 -390 -38
-94 -60 -135 -120 -227 -53 -79 -59 -105 -28 -117 25 -9 44 5 83 63 120 176
206 433 227 673 8 100 1 128 -31 128 -18 0 -26 -6 -29 -22z"/>
<path d="M1161 1300 c-501 -4 -565 -7 -574 -21 -8 -12 4 -40 48 -117 l57 -102
-55 -97 c-30 -53 -53 -102 -50 -108 7 -21 450 -26 2150 -25 1546 2 1644 3
1664 19 l22 17 -50 85 c-27 46 -52 91 -55 100 -4 10 15 53 48 109 54 93 65
127 41 136 -18 6 -2571 10 -3246 4z m434 -199 c17 -28 32 -50 35 -50 3 0 24
27 48 61 25 34 47 57 52 52 7 -7 40 -169 40 -196 0 -5 -11 -8 -24 -8 -21 0
-25 6 -33 58 l-8 57 -35 -52 c-19 -29 -38 -53 -42 -53 -4 0 -19 22 -35 50 -31
55 -41 49 -42 -22 -1 -34 -4 -38 -26 -38 -14 0 -25 6 -25 13 0 23 29 178 35
188 10 14 25 -1 60 -60z m-137 42 c-2 -14 -15 -19 -51 -21 -39 -3 -47 -6 -47
-23 0 -15 7 -19 35 -19 28 0 35 -4 35 -20 0 -16 -7 -20 -35 -20 -34 0 -35 -1
-35 -40 0 -33 -3 -40 -20 -40 -19 0 -20 7 -20 100 l0 100 71 0 c62 0 70 -2 67
-17z m653 6 c33 -17 5 -41 -37 -33 -47 9 -43 -9 9 -38 34 -19 43 -29 45 -55 5
-55 -56 -80 -118 -48 -34 17 -37 27 -15 45 12 10 19 10 27 2 15 -15 58 -16 58
-2 0 5 -17 17 -37 25 -42 18 -53 30 -53 62 0 43 73 68 121 42z m139 -23 c0
-27 5 -35 24 -40 13 -3 38 -3 55 0 27 6 31 11 31 40 0 27 4 34 20 34 19 0 20
-7 20 -100 0 -93 -1 -100 -20 -100 -17 0 -20 7 -20 45 0 49 -8 53 -79 39 -28
-6 -31 -10 -31 -45 0 -35 -3 -39 -25 -39 l-25 0 0 100 0 100 25 0 c22 0 25 -4
25 -34z m400 14 c0 -11 -6 -20 -14 -20 -18 0 -26 -22 -26 -71 0 -32 3 -39 20
-39 15 0 20 -7 20 -25 0 -24 -3 -25 -55 -25 -52 0 -55 1 -55 25 0 18 5 25 20
25 17 0 20 7 20 51 0 42 -3 52 -20 56 -11 3 -20 14 -20 24 0 16 8 19 55 19 48
0 55 -2 55 -20z m249 11 c11 -7 11 -12 -2 -31 -9 -13 -17 -17 -22 -11 -8 14
-55 15 -55 1 0 -5 15 -17 33 -26 72 -37 82 -60 42 -99 -29 -30 -74 -32 -106
-6 -22 18 -23 21 -8 36 14 14 20 15 36 4 12 -7 29 -9 39 -5 16 6 12 11 -26 29
-36 17 -46 28 -48 50 -5 40 22 67 67 67 20 0 42 -4 50 -9z m221 -26 l0 -35 55
0 55 0 0 35 c0 31 3 35 25 35 l25 0 0 -100 0 -100 -25 0 c-23 0 -25 4 -25 46
l0 45 -52 -3 -53 -3 -3 -42 c-3 -35 -7 -43 -23 -43 -18 0 -19 8 -19 100 0 93
1 100 20 100 16 0 20 -7 20 -35z m469 -57 c23 -51 41 -96 41 -100 0 -17 -40
-7 -50 12 -8 15 -21 20 -50 20 -29 0 -42 -5 -50 -20 -9 -17 -50 -29 -50 -15 0
9 73 169 83 183 20 26 35 9 76 -80z m239 84 c7 -5 10 -16 6 -25 -5 -13 -14
-16 -45 -11 -54 9 -51 -12 6 -36 92 -39 60 -134 -40 -116 -46 9 -64 32 -42 54
13 13 20 13 29 4 14 -14 58 -16 58 -3 0 5 -18 16 -39 25 -60 23 -76 61 -41 96
21 21 83 27 108 12z m-1958 -102 c0 -16 -7 -20 -35 -20 -28 0 -35 4 -35 20 0
16 7 20 35 20 28 0 35 -4 35 -20z"/>
<path d="M3521 1062 c-15 -28 -14 -32 9 -32 21 0 26 16 11 39 -7 11 -11 10
-20 -7z"/>
</g>
</svg>
